<svg aria-hidden="true" style="position: absolute; width: 0; height: 0; overflow: hidden;" version="1.1" xmlns="http://www.w3.org/2000/svg" xmlns:xlink="http://www.w3.org/1999/xlink">
<defs>
<symbol id="icon-logo" viewBox="0 0 110 32">
<path fill="#fdc305" style="fill: var(--color1, #fdc305)" d="M32.479 12.912c-0.976-2.278-2.467-4.174-4.335-5.603l-0.033-0.024c-1.841-1.41-4.090-2.381-6.541-2.715l-0.072-0.008c-0.552-0.077-1.19-0.121-1.838-0.121-1.897 0-3.706 0.378-5.356 1.062l0.093-0.034c-2.3 0.948-4.22 2.416-5.681 4.264l-0.022 0.029c-1.433 1.813-2.426 4.036-2.781 6.467l-0.009 0.074c-0.086 0.576-0.135 1.24-0.135 1.916 0 1.85 0.367 3.614 1.033 5.224l-0.033-0.091c0.946 2.295 2.413 4.21 4.26 5.664l0.030 0.022c1.824 1.436 4.058 2.435 6.498 2.802l0.077 0.009c-0.246-0.788-0.562-2.026-0.841-3.277l-0.076-0.408c0.735 0.481 1.583 0.94 2.469 1.328l0.113 0.044s0.065 1.162 0.152 2.459c0.97 0.016 1.939-0.068 2.891-0.253-0.012-0.061-0.018-0.132-0.018-0.204s0.007-0.143 0.020-0.212l-0.001 0.007c0.157-1.006 0.591-2.819 0.678-3.986 0.614-0.571 1.137-1.228 1.552-1.956l0.021-0.040-0.033 0.236c-0.298 2.292-0.922 4.74-1.302 5.418-0.13 0.235-0.28 0.438-0.451 0.62l0.001-0.001c2.066-0.49 3.875-1.379 5.423-2.587l-0.031 0.023c1.573-1.227 2.854-2.752 3.772-4.497l0.036-0.076c0.965-1.827 1.531-3.994 1.531-6.293 0-1.907-0.39-3.722-1.093-5.371l0.034 0.089zM31.682 14.951c-0.239 0.231-0.732 0.387-0.814-0.312-0.041-0.317-0.078-0.727-0.101-1.141l-0.002-0.048s-1.047-1.845-1.437-1.867c-0.39-0.022-3.163 1.867-3.895 2.69-0.635 0.694-0.759 0.645-0.759 1.867 0 0.92 0.119 4.395 0.054 7.053l-4.42 1.168c-1.39 0.395-2.803 0.705-4.231 0.925l-0.542-3.137h-0.076l-1.394-7.086s-2.066-0.774-2.826-0.984c-0.241-0.107-0.521-0.169-0.817-0.169-0.519 0-0.993 0.193-1.355 0.51l0.002-0.002c-0.292 0.254-0.527 0.565-0.69 0.917l-0.007 0.017c-0.153 0.329-0.242 0.713-0.242 1.119 0 0.006 0 0.013 0 0.019v-0.001c0.115 0.25 0.202 0.511 0.26 0.78 0.027 0.258-0.651 0.231-1.085 0.231s-0.499-0.774-0.157-1.684c0.267-0.7 0.597-1.373 0.987-2.012 0.31-0.596 0.684-1.108 1.124-1.556l-0.001 0.001s0.076-0.183 0.678-0.129c0.602 0.054 3.948 0.232 3.948 0.232l0.027-1.221c3.183-0.46 6.858-0.722 10.595-0.722 0.135 0 0.27 0 0.405 0.001l-0.021-0v0.985c1.293-0.6 2.798-0.988 4.383-1.075l0.032-0.001c0.004-0 0.008-0 0.012-0 0.167 0 0.315 0.082 0.405 0.209l0.001 0.002c0.184 0.232 1.307 1.614 1.437 1.813 0.328 0.458 0.657 0.986 0.953 1.534l0.039 0.080c-0.11 0.377-0.271 0.706-0.479 1l0.007-0.011v0.005z"></path>
<path fill="#f06351" style="fill: var(--color2, #f06351)" d="M30.624 11.658c0.255 0.323 0.477 0.608 0.542 0.694 0.328 0.458 0.657 0.986 0.953 1.534l0.039 0.080c-0.103 0.342-0.26 0.665-0.466 0.957-0.239 0.232-0.732 0.387-0.814-0.312s-0.114-1.162-0.114-1.162-1.047-1.845-1.437-1.867c-0.39-0.022-3.162 1.867-3.894 2.69-0.635 0.694-0.759 0.645-0.759 1.867 0 0.807 0.092 3.578 0.070 6.042 0.982 0.107 2.424 0.376 2.858 1.011 0 0-0.157-3.863 4.236-1.84 0 0 0.152-5.267 6.216-3.916-2.044-2.369-4.512-4.309-7.295-5.716l-0.135-0.062zM24.912 10.41c0.001-0.106 0.001-0.232 0.001-0.357 0-3.017-0.277-5.97-0.806-8.834l0.046 0.297s-0.081-0.7-0.472-0.129c-0.303 0.624-0.531 1.349-0.646 2.11l-0.005 0.042c-0.736-0.050-1.596-0.078-2.462-0.078-1.583 0-3.143 0.095-4.676 0.279l0.185-0.018c-0.445-1.48-1.204-2.152-1.567-1.974s-0.407 1.764-0.407 1.764l-0.179 7.618c3.183-0.46 6.859-0.722 10.596-0.722 0.138 0 0.276 0 0.414 0.001l-0.021-0z"></path>
<path fill="#e55645" style="fill: var(--color3, #e55645)" d="M24.598 25.351c0.070-0.576 0.108-1.34 0.13-2.185l-4.42 1.168c-1.143 0.352-2.57 0.683-4.027 0.925l-0.203 0.028 0.602 2.69c0 0.059 0 0.118 0.038 0.177 0.735 0.481 1.583 0.94 2.469 1.328l0.113 0.044c1.428-0.683 2.652-1.424 3.795-2.267l-0.063 0.044v0.033c0.611-0.568 1.132-1.222 1.546-1.945l0.021-0.040z"></path>
<path fill="#000" style="fill: var(--color4, #000)" d="M17.357 8.727c-0.027-0.054 0.542 0.366 0.765 0.495s0.331 0.226 0.331 0.317c0 0.092-0.141 0.183-0.336 0.183s-0.499-0.065-0.542-0.14c-0.043-0.075 0.325 0 0.51 0h0.157c-0.338-0.247-0.629-0.529-0.877-0.846l-0.007-0.010zM21.425 8.785s-0.542 0.689-0.591 0.721c-0.049 0.032-0.092 0.183 0.103 0.156 0.254-0.038 0.477-0.091 0.693-0.159l-0.031 0.009c0.060-0.033 0.038-0.107-0.065-0.097s-0.369 0.027-0.542 0.059l0.461-0.683s0.016-0.065-0.027-0.005zM19.722 12.073c0.253-0.112 0.457-0.299 0.588-0.532l0.003-0.006c0.152-0.355 0-0.49-0.239-0.538-0.329-0.060-0.667 0.005-0.949 0.183-0.212 0.199-0.184 0.393 0 0.538 0.173 0.135 0.369 0.254 0.579 0.348l0.018 0.007z"></path>
<path fill="#f06351" style="fill: var(--color2, #f06351)" d="M19.526 12.751c-0.062 0.122-0.147 0.232-0.25 0.323-0.155 0.123-0.344 0.195-0.542 0.204-0.035 0.004-0.075 0.006-0.115 0.006-0.272 0-0.522-0.091-0.723-0.245l0.003 0.002c-0.112-0.066-0.207-0.146-0.286-0.24l-0.001-0.002c-0.053-0.057-0.118-0.103-0.192-0.133l-0.004-0.001s0.407 2.211 1.394 2.566c0.987 0.355 1.172-0.408 1.199-0.613 0.003-0.048 0.004-0.105 0.004-0.161 0-0.586-0.167-1.132-0.456-1.594l0.007 0.013c0-0.162-0.011-0.054-0.038-0.124z"></path>
<path fill="#000" style="fill: var(--color4, #000)" d="M18.604 13.364c-0.527-0.078-0.976-0.361-1.271-0.764l-0.004-0.005c-0.013-0.014-0.021-0.033-0.021-0.054s0.008-0.040 0.021-0.054l-0 0c0.014-0.014 0.033-0.023 0.054-0.023 0.011 0 0.021 0.002 0.030 0.006l-0-0c0.009 0.004 0.018 0.009 0.024 0.016v0c0.268 0.37 0.67 0.629 1.134 0.704l0.010 0.001c0.376-0.029 0.698-0.235 0.887-0.533l0.003-0.005 0.076-0.102 0.054 0.118s0.206 0.409 0.542 0.431c0.336 0.022 0.575-0.226 0.884-0.694 0.014-0.021 0.038-0.035 0.065-0.035 0.016 0 0.031 0.005 0.044 0.013l-0-0c0.021 0.014 0.035 0.038 0.035 0.065 0 0.016-0.005 0.031-0.013 0.043l0-0c-0.361 0.527-0.703 0.78-1.025 0.758-0.258-0.035-0.475-0.182-0.605-0.389l-0.002-0.004c-0.211 0.291-0.542 0.484-0.919 0.506l-0.003 0z"></path>
<path fill="#fdc305" style="fill: var(--color1, #fdc305)" d="M19.668 20.605c1.123 0 2.034-0.903 2.034-2.017s-0.911-2.018-2.034-2.018c-1.124 0-2.034 0.904-2.034 2.018s0.91 2.018 2.034 2.018z"></path>
<path fill="#111" style="fill: var(--color5, #111)" d="M22.363 16.947l-1.698 0.705 0.624-3.029-4.068 5.25 1.698-0.704-0.624 3.034 4.068-5.256zM18.355 19.007l2.256-2.91-0.439 2.152 1.085-0.441-2.273 2.916 0.439-2.152-1.068 0.436zM17.595 18.217c0.336 0 0.607-0.27 0.607-0.603s-0.271-0.603-0.607-0.603c-0.335 0-0.607 0.27-0.607 0.602s0.272 0.603 0.607 0.603zM21.132 20.401c0.236 0 0.428-0.19 0.428-0.425-0.001-0.235-0.192-0.425-0.427-0.425-0.001 0-0.001 0-0.002 0h0c-0.236 0-0.428 0.19-0.428 0.425s0.192 0.425 0.428 0.425zM21.653 19.234c0.105 0 0.19-0.085 0.19-0.189s-0.085-0.188-0.189-0.188c-0 0-0 0-0.001 0h0c-0 0-0 0-0.001 0-0.104 0-0.189 0.084-0.189 0.188v0c0 0.104 0.085 0.189 0.19 0.189z"></path>
<path fill="#f06351" style="fill: var(--color2, #f06351)" d="M24.885 11.384c-0.984 0.882-1.886 1.797-2.729 2.765l-0.032 0.037c-0.857 0.981-1.801 1.847-2.832 2.602l-0.049 0.034c-0.119-0.285-0.884-0.817-0.884-0.817s-1.703-1.157-2.82-2.066c-0.617-0.512-1.173-1.040-1.692-1.602l-0.011-0.012-1.085-0.059c1.563 2.24 3.804 3.913 6.422 4.733l0.087 0.023c0.466-0.076 1.779-1.006 2.761-1.765 1.178-0.997 2.241-2.037 3.226-3.147l0.028-0.032c0.26-0.305 0.47-0.662 0.611-1.052l0.008-0.024c-0.618 0.204-1.009 0.382-1.009 0.382z"></path>
<path fill="#fdc305" style="fill: var(--color1, #fdc305)" d="M35.375 1.883l-4.588 5.079-0.662-1.071 4.42-5.891 0.83 1.883zM33.981 9.285l3.005-2.211-0.423-2.012-2.929 2.588 0.347 1.636zM32.501 26.561l3.325 1.711 1.633-1.259-3.628-1.48-1.329 1.028zM1.058 3.212l1.665-1.808 5.039 4.842-0.662 1.227-6.042-4.261zM4.003 8.759l-2.549-1.684-1.302 2.082 2.793 1.291 1.058-1.689zM7.544 28.272l-2.468 1.802 1.519 1.926 2.18-2.163-1.231-1.565z"></path>
<path fill="#f06351" style="fill: var(--color2, #f06351)" d="M14.064 15.064s-2.066-0.774-2.826-0.984c-0.241-0.107-0.521-0.169-0.817-0.169-0.519 0-0.993 0.193-1.355 0.51l0.002-0.002c-0.292 0.254-0.527 0.565-0.69 0.917l-0.007 0.017c-0.152 0.328-0.241 0.713-0.241 1.118 0 0.007 0 0.014 0 0.021v-0.001c0.114 0.25 0.202 0.511 0.26 0.78 0.027 0.258-0.651 0.231-1.085 0.231s-0.499-0.774-0.157-1.684c0.266-0.7 0.597-1.373 0.987-2.012-2.956 1.528-8.136 5.057-8.136 5.057 0.447-0.028 0.97-0.045 1.496-0.045 1.038 0 2.062 0.063 3.067 0.186l-0.121-0.012c2.847 0.285 2.712 2.512 2.712 2.512 0.856-0.246 1.892-0.456 2.951-0.586l0.102-0.010c1.15-0.076 1.232 1.14 1.232 1.14l0.287 2.077c0.433-0.463 0.903-0.881 1.409-1.251l0.028-0.020c0.558-0.446 1.275-0.715 2.054-0.715 0.113 0 0.225 0.006 0.336 0.017l-0.014-0.001-1.475-7.090z"></path>
<path fill="#111" style="fill: var(--color5, #111)" d="M46.462 22.596c-0.482-0.699-0.769-1.564-0.769-2.496 0-0.104 0.004-0.208 0.011-0.31l-0.001 0.014v-4.035c-0.007-0.095-0.011-0.205-0.011-0.316 0-0.933 0.284-1.8 0.77-2.518l-0.010 0.016c0.503-0.642 1.361-0.962 2.576-0.958s2.038 0.285 2.468 0.845c0.455 0.596 0.73 1.351 0.73 2.171 0 0.086-0.003 0.171-0.009 0.255l0.001-0.011v0.947h-2.245v-1.028c-0.003-0.288-0.029-0.566-0.075-0.838l0.004 0.031c-0.029-0.201-0.121-0.377-0.255-0.511v0c-0.147-0.126-0.34-0.202-0.55-0.202-0.026 0-0.052 0.001-0.077 0.003l0.003-0c-0.035-0.005-0.076-0.009-0.117-0.009-0.129 0-0.251 0.031-0.359 0.085l0.005-0.002c-0.146 0.074-0.264 0.187-0.341 0.325l-0.002 0.004c-0.119 0.306-0.188 0.661-0.188 1.032 0 0.053 0.001 0.106 0.004 0.159l-0-0.007v5.122c-0.003 0.046-0.005 0.101-0.005 0.155 0 0.372 0.080 0.726 0.223 1.044l-0.006-0.016c0.141 0.24 0.398 0.398 0.692 0.398 0.033 0 0.066-0.002 0.098-0.006l-0.004 0c0.153 0.022 0.309-0.005 0.445-0.077s0.247-0.184 0.315-0.321c0.109-0.304 0.172-0.656 0.172-1.022 0-0.055-0.001-0.11-0.004-0.164l0 0.008v-1.077h2.245v0.931c0.007 0.087 0.011 0.188 0.011 0.29 0 0.818-0.254 1.577-0.686 2.203l0.008-0.013c-0.477 0.592-1.302 0.882-2.473 0.882s-2.088-0.323-2.593-0.984zM55.276 12.148h2.571l2.169 11.298h-2.137l-0.385-2.496h-1.801l-0.434 2.48h-2.169l2.186-11.282zM57.256 19.53l-0.683-4.541-0.678 4.541h1.361zM61.681 13.848h-1.757v-1.7h5.814v1.7h-1.736v9.583h-2.327l0.005-9.582z"></path>
<path fill="#444" style="fill: var(--color6, #444)" d="M70.3 12.148h4.409v1.173h-2.82v3.728h2.289v1.114h-2.289v4.137h2.847v1.131h-4.437v-11.282zM76.017 12.148h1.085l3.254 7.494v-7.494h1.323v11.298h-1.014l-3.254-7.704v7.688h-1.345l-0.049-11.282zM83.432 12.148h4.404v1.173h-2.82v3.728h2.311v1.114h-2.289v4.137h2.831v1.131h-4.437v-11.282zM89.143 12.148h2.289c0.091-0.008 0.198-0.012 0.305-0.012 0.836 0 1.61 0.269 2.239 0.725l-0.011-0.008c0.542 0.468 0.808 1.231 0.808 2.292 0 1.435-0.468 2.312-1.405 2.631l1.627 5.655h-1.54l-1.492-5.294h-1.231v5.294h-1.589v-11.281zM91.313 16.99c0.061 0.006 0.131 0.010 0.203 0.010 0.475 0 0.914-0.157 1.267-0.423l-0.005 0.004c0.284-0.332 0.457-0.767 0.457-1.242 0-0.076-0.004-0.151-0.013-0.224l0.001 0.009c0.001-0.028 0.001-0.060 0.001-0.093 0-0.352-0.058-0.69-0.165-1.005l0.007 0.022c-0.097-0.261-0.291-0.467-0.536-0.578l-0.006-0.003c-0.29-0.121-0.626-0.192-0.98-0.192-0.047 0-0.093 0.001-0.139 0.004l0.006-0h-0.7v3.734l0.602-0.022zM96.911 22.596c-0.44-0.724-0.701-1.6-0.701-2.537 0-0.12 0.004-0.239 0.013-0.357l-0.001 0.016v-3.766c-0.002-0.056-0.002-0.121-0.002-0.187 0-0.7 0.1-1.377 0.286-2.016l-0.013 0.051c0.164-0.539 0.497-0.986 0.936-1.291l0.008-0.005c0.473-0.287 1.044-0.457 1.655-0.457 0.059 0 0.118 0.002 0.176 0.005l-0.008-0c0.081-0.008 0.174-0.013 0.269-0.013 0.777 0 1.482 0.308 1.999 0.809l-0.001-0.001c0.442 0.607 0.706 1.367 0.706 2.189 0 0.106-0.004 0.212-0.013 0.316l0.001-0.014v0.42h-1.492v-0.35c0.001-0.044 0.002-0.096 0.002-0.148 0-0.389-0.036-0.769-0.105-1.138l0.006 0.038c-0.052-0.272-0.202-0.503-0.409-0.66l-0.003-0.002c-0.237-0.141-0.522-0.224-0.827-0.224-0.037 0-0.074 0.001-0.111 0.004l0.005-0c-0.035-0.003-0.076-0.005-0.117-0.005-0.329 0-0.631 0.115-0.867 0.308l0.002-0.002c-0.218 0.205-0.369 0.48-0.417 0.789l-0.001 0.008c-0.059 0.363-0.093 0.781-0.093 1.207 0 0.047 0 0.093 0.001 0.139l-0-0.007v4.191c-0.006 0.081-0.009 0.175-0.009 0.271 0 0.575 0.121 1.122 0.339 1.616l-0.010-0.026c0.286 0.345 0.714 0.563 1.193 0.563 0.501 0 0.946-0.238 1.229-0.608l0.003-0.004c0.215-0.497 0.34-1.075 0.34-1.683 0-0.099-0.003-0.197-0.010-0.294l0.001 0.013v-0.796h-1.443v-1.114h2.875v5.585h-0.982l-0.157-1.297c-0.131 0.442-0.398 0.81-0.753 1.064l-0.006 0.004c-0.324 0.232-0.728 0.371-1.165 0.371-0.035 0-0.070-0.001-0.104-0.003l0.005 0c-0.066 0.006-0.143 0.010-0.221 0.010-0.369 0-0.72-0.078-1.036-0.219l0.016 0.006c-0.398-0.176-0.73-0.439-0.984-0.764l-0.004-0.006zM105.599 19.448l-2.457-7.3h1.475l1.741 5.444 1.714-5.444h1.492l-2.441 7.3v3.981h-1.519l-0.005-3.981z"></path>
</symbol>
<symbol id="icon-footer-logo" viewBox="0 0 171 32">
<path d="M2.137 29.401c-1.347-1.982-2.151-4.428-2.151-7.061 0-0.21 0.005-0.418 0.015-0.625l-0.001 0.029v-11.351c-0.018-0.258-0.029-0.559-0.029-0.863 0-2.574 0.758-4.972 2.062-6.981l-0.030 0.050c1.469-1.779 3.74-2.599 7.079-2.599s5.475 0.82 6.811 2.325c1.264 1.655 2.025 3.752 2.025 6.028 0 0.237-0.008 0.471-0.024 0.704l0.002-0.031v2.736h-6.544v-3.148c0.007-0.117 0.011-0.254 0.011-0.391 0-0.84-0.151-1.645-0.427-2.39l0.015 0.048c-0.172-0.354-0.437-0.641-0.763-0.835l-0.009-0.005c-0.274-0.163-0.603-0.26-0.956-0.26-0.050 0-0.099 0.002-0.148 0.006l0.006-0c-0.935 0-1.603 0.273-1.871 0.957-0.258 0.801-0.406 1.722-0.406 2.678 0 0.116 0.002 0.232 0.007 0.347l-0-0.017v14.632c-0.010 0.124-0.015 0.269-0.015 0.415 0 0.892 0.202 1.737 0.563 2.492l-0.015-0.035c0.267 0.684 0.936 0.957 1.871 0.957 0.933 0 1.469-0.273 1.736-0.957 0.304-0.924 0.44-1.897 0.4-2.872v-3.281h6.544v2.735c0.011 0.179 0.017 0.389 0.017 0.6 0 2.343-0.757 4.509-2.041 6.267l0.021-0.030c-1.336 1.641-3.607 2.463-6.811 2.463-3.205-0.137-5.609-0.957-6.944-2.736zM25.773 0.411h7.613l5.608 31.179h-6.143l-1.069-6.564h-4.407l-1.068 6.564h-6.277l5.743-31.179zM31.249 20.923l-1.603-12.171-1.603 12.171h3.205zM43.668 5.607h-4.54v-5.196h15.891v5.059h-4.539v26.12h-6.811v-25.983zM67.172 0.411h11.752v3.281h-7.613v10.256h6.144v3.147h-6.143v11.487h7.612v3.145h-11.885v-31.316h0.133zM82.396 0.411h2.937l8.68 20.649v-20.649h3.472v31.179h-2.671l-8.813-21.333v21.333h-3.607v-31.179zM101.492 0.411h11.752v3.281h-7.613v10.256h6.144v3.147h-6.143v11.487h7.612v3.145h-11.752v-31.316zM116.716 0.411h6.143c0.218-0.016 0.473-0.025 0.73-0.025 2.28 0 4.391 0.727 6.112 1.962l-0.032-0.022c1.469 1.231 2.137 3.419 2.137 6.289 0 3.967-1.203 6.428-3.74 7.248l4.273 15.591h-4.14l-4.005-14.633h-3.339v14.633h-4.273v-31.043h0.133zM122.592 13.811c0.143 0.013 0.309 0.020 0.477 0.020 1.278 0 2.458-0.418 3.411-1.124l-0.016 0.011c0.801-0.683 1.203-2.051 1.203-4.103 0.004-0.098 0.006-0.214 0.006-0.33 0-0.956-0.148-1.877-0.424-2.742l0.018 0.064c-0.306-0.701-0.816-1.265-1.454-1.631l-0.017-0.009c-0.741-0.355-1.61-0.562-2.528-0.562-0.144 0-0.287 0.005-0.429 0.015l0.019-0.001h-1.869v10.256h1.603v0.137zM137.148 29.265c-1.193-2.026-1.897-4.463-1.897-7.065 0-0.306 0.010-0.609 0.029-0.91l-0.002 0.041v-10.391c-0.032-1.981 0.192-3.96 0.668-5.88 0.461-1.463 1.35-2.682 2.518-3.543l0.019-0.013c1.267-0.782 2.802-1.245 4.446-1.245 0.174 0 0.347 0.005 0.519 0.015l-0.024-0.001c2.804 0 4.808 0.684 6.009 2.188 1.187 1.693 1.897 3.796 1.897 6.065 0 0.272-0.010 0.541-0.030 0.808l0.002-0.036v1.093h-4.005v-0.956c0-0.030 0-0.064 0-0.099 0-1.172-0.098-2.321-0.285-3.44l0.017 0.121c-0.116-0.732-0.506-1.356-1.061-1.774l-0.007-0.005c-0.635-0.433-1.42-0.692-2.265-0.692-0.096 0-0.191 0.003-0.285 0.010l0.013-0.001c-0.076-0.005-0.165-0.008-0.254-0.008-0.915 0-1.757 0.312-2.425 0.835l0.009-0.007c-0.617 0.54-1.018 1.313-1.068 2.18l-0 0.008c-0.168 1.108-0.265 2.388-0.268 3.69v11.626c-0.012 0.211-0.020 0.457-0.020 0.705 0 1.614 0.301 3.159 0.85 4.579l-0.030-0.087c0.535 1.093 1.603 1.504 3.205 1.504 0.633 0.080 1.275-0.032 1.845-0.324 0.577-0.302 1.041-0.752 1.351-1.301l0.008-0.016c0.601-1.434 0.95-3.1 0.95-4.848 0-0.219-0.005-0.436-0.016-0.652l0.001 0.030v-2.192h-3.873v-3.145h7.745v15.453h-2.671l-0.4-3.555c-0.362 1.215-1.091 2.227-2.056 2.936l-0.016 0.011c-0.872 0.64-1.966 1.025-3.15 1.025-0.089 0-0.178-0.002-0.266-0.006l0.012 0c-0.116 0.007-0.252 0.012-0.389 0.012-1.025 0-1.994-0.235-2.857-0.655l0.039 0.017c-1.026-0.498-1.877-1.213-2.52-2.089l-0.013-0.019zM159.984 20.649l-6.544-20.103h4.007l4.673 15.043 4.54-15.043h4.007l-6.544 20.103v10.94h-4.005v-10.94h-0.133z"></path>
</symbol>
<symbol id="icon-icon_facebook" viewBox="0 0 27 32">
<path fill="none" stroke="#666" style="stroke: var(--color7, #666)" stroke-linejoin="round" stroke-linecap="round" stroke-miterlimit="4" stroke-width="1.0667" d="M20.364 2.667h-3.394c-1.5 0-2.938 0.688-4 1.914s-1.656 2.89-1.656 4.623v3.922h-3.394v5.23h3.394v10.459h4.525v-10.459h3.394l1.132-5.23h-4.526v-3.923c0-0.347 0.119-0.679 0.332-0.924s0.5-0.383 0.8-0.383h3.394v-5.229z"></path>
</symbol>
<symbol id="icon-icon_instagram" viewBox="0 0 32 32">
<path fill="#666" style="fill: var(--color7, #666)" d="M15.968 0.125c2.667 0 4.845 0.031 6.532 0.093 1.437 0.063 2.719 0.313 3.844 0.751 1.082 0.416 2.020 1.020 2.812 1.811 0.776 0.778 1.392 1.715 1.794 2.759l0.018 0.054c0.437 1.124 0.687 2.406 0.75 3.843 0.063 1.688 0.093 3.865 0.093 6.531 0 2.667-0.031 4.845-0.093 6.532-0.063 1.437-0.313 2.719-0.751 3.844-0.421 1.097-1.037 2.034-1.812 2.812l0-0c-0.778 0.775-1.714 1.391-2.757 1.794l-0.055 0.019c-1.126 0.437-2.407 0.687-3.844 0.75-1.688 0.063-3.865 0.093-6.532 0.093-2.666 0-4.842-0.031-6.531-0.093-1.437-0.063-2.719-0.313-3.843-0.751-1.098-0.421-2.035-1.036-2.813-1.812l0 0c-0.775-0.778-1.391-1.714-1.794-2.757l-0.019-0.055c-0.437-1.126-0.687-2.407-0.75-3.844-0.060-1.754-0.094-3.815-0.094-5.884 0-0.228 0-0.456 0.001-0.684l-0 0.035c0-2.666 0.031-4.842 0.093-6.531 0.063-1.437 0.313-2.719 0.751-3.843 0.416-1.085 1.020-2.022 1.811-2.813 0.778-0.776 1.715-1.392 2.759-1.794l0.054-0.018c1.124-0.437 2.406-0.687 3.843-0.75 1.688-0.063 3.865-0.093 6.531-0.093zM15.968 2.187c-2.77 0-5.031 0.032-6.78 0.095-1.13 0.033-2.2 0.247-3.196 0.615l0.069-0.022c-1.5 0.626-2.561 1.688-3.186 3.187-0.346 0.926-0.561 1.996-0.594 3.112l-0 0.015c-0.061 1.832-0.096 3.985-0.096 6.147 0 0.223 0 0.445 0.001 0.668l-0-0.035c0 2.771 0.032 5.032 0.095 6.783 0.033 1.13 0.247 2.199 0.615 3.194l-0.022-0.069c0.626 1.5 1.688 2.561 3.187 3.186 0.926 0.346 1.996 0.561 3.112 0.594l0.015 0c1.749 0.063 4.010 0.095 6.78 0.095 2.771 0 5.032-0.032 6.783-0.095 1.13-0.033 2.199-0.247 3.194-0.615l-0.070 0.023c1.5-0.626 2.561-1.688 3.186-3.187 0.346-0.926 0.561-1.995 0.594-3.11l0-0.015c0.063-1.75 0.095-4.011 0.095-6.783 0-2.77-0.032-5.031-0.095-6.78-0.033-1.13-0.247-2.2-0.615-3.196l0.023 0.069c-0.626-1.5-1.688-2.561-3.187-3.186-0.926-0.346-1.995-0.561-3.11-0.594l-0.015-0c-1.832-0.061-3.985-0.096-6.147-0.096-0.223 0-0.447 0-0.67 0.001l0.034-0zM15.968 22.312c1.75 0 3.246-0.619 4.486-1.859 1.238-1.24 1.859-2.735 1.859-4.486 0-1.749-0.619-3.245-1.859-4.484-1.24-1.238-2.735-1.859-4.486-1.859-1.749 0-3.245 0.619-4.484 1.859-1.238 1.24-1.859 2.735-1.859 4.484 0 1.75 0.619 3.246 1.859 4.486 1.24 1.238 2.735 1.859 4.484 1.859zM15.968 7.843c2.251 0 4.167 0.793 5.75 2.376s2.375 3.499 2.375 5.749c0 2.251-0.792 4.167-2.375 5.75s-3.499 2.375-5.75 2.375c-2.25 0-4.166-0.792-5.749-2.375s-2.375-3.499-2.375-5.75c0-2.25 0.792-4.166 2.375-5.749s3.499-2.375 5.749-2.375zM26.344 7.531c0 0.52-0.188 0.964-0.563 1.329s-0.833 0.547-1.375 0.547c-0.010 0-0.021 0-0.033 0-0.508 0-0.967-0.209-1.296-0.547l-0-0c-0.338-0.329-0.547-0.788-0.547-1.296 0-0.011 0-0.023 0-0.034l-0 0.002c0-0.543 0.182-1 0.547-1.375 0.365-0.376 0.807-0.562 1.329-0.562 0.52 0 0.974 0.192 1.359 0.577s0.579 0.839 0.579 1.359z"></path>
</symbol>
<symbol id="icon-icon_vkontakte" viewBox="0 0 44 32">
<path fill="#666" style="fill: var(--color7, #666)" d="M0.132 7.985c0-1.244 0.803-1.914 2.409-2.012l6.188 0.036c0.415 0 0.691 0.183 0.829 0.548 0.637 1.83 1.35 3.408 2.138 4.737 0.79 1.328 1.821 2.86 3.094 4.591 0.111 0.218 0.291 0.329 0.54 0.329 0.003 0 0.006 0 0.010 0 0.19 0 0.355-0.102 0.445-0.254l0.001-0.002 0.125-0.403 0.042-6.327c0-0.439-0.118-0.732-0.353-0.879-0.236-0.145-0.672-0.256-1.309-0.329-0.497-0.073-0.746-0.342-0.746-0.804 0-0.097 0.015-0.172 0.041-0.22 0.582-1.585 2.243-2.378 4.983-2.378l2.326-0.036c1.052 0 1.923 0.233 2.615 0.695s1.039 1.194 1.039 2.195v8.303c0.151 0.106 0.336 0.173 0.536 0.183l0.002 0c0.416 0 0.777-0.218 1.081-0.657 3.044-3.756 4.692-6.269 4.941-7.536 0.019-0.070 0.047-0.131 0.084-0.185l-0.001 0.002c0.193-0.365 0.512-0.684 0.956-0.951 0.442-0.268 0.829-0.451 1.162-0.548 0.106-0.046 0.229-0.073 0.358-0.073 0.006 0 0.011 0 0.017 0h6.436l0.415 0.036c0.014-0 0.030-0.001 0.046-0.001 0.523 0 0.981 0.276 1.237 0.69l0.004 0.006c0.111 0.145 0.186 0.305 0.228 0.476s0.068 0.34 0.083 0.512c0.015 0.17 0.020 0.268 0.020 0.292v0.256c-0.193 0.999-0.684 2.065-1.473 3.2s-1.792 2.361-3.011 3.677c-1.217 1.316-1.978 2.182-2.284 2.596-0.249 0.294-0.374 0.561-0.374 0.806 0 0.195 0.111 0.415 0.333 0.657l6.063 6.73c0.332 0.391 0.497 0.817 0.497 1.28 0 0.561-0.249 1.025-0.748 1.391-0.497 0.367-1.094 0.573-1.785 0.623l-0.707 0.036h-6.311c-0.028 0-0.083 0.006-0.166 0.017-0.047 0.009-0.104 0.015-0.162 0.019l-0.004 0c-0.609 0-1.177-0.233-1.702-0.695-0.195-0.195-1.495-1.633-3.904-4.316-0.163-0.19-0.355-0.348-0.571-0.47l-0.011-0.006c-0.109 0.39-0.255 0.951-0.436 1.683-0.309 1.368-0.444 1.896-0.583 2.422l0.191-0.85-0.125 0.623c-0.276 0.852-0.858 1.364-1.744 1.536l-0.582 0.036h-4.067c-2.298 0-4.588-0.927-6.873-2.78-2.284-1.853-4.339-4.25-6.166-7.188s-3.529-6.358-5.107-10.259c-0.133-0.303-0.21-0.656-0.21-1.028 0-0.012 0-0.024 0-0.036l-0 0.002zM25.088 17.459c-0.582 0-1.108-0.14-1.578-0.42-0.471-0.281-0.705-0.665-0.705-1.152v-8.413c0-0.487-0.138-0.835-0.416-1.043-0.276-0.207-0.761-0.311-1.453-0.311l-2.367 0.073c-1.19 0-2.090 0.183-2.698 0.55 1.217 0.512 1.825 1.341 1.825 2.487v6.438c-0.054 0.611-0.332 1.116-0.829 1.519-0.445 0.375-1.025 0.604-1.659 0.604-0.001 0-0.002 0-0.003 0h0c-0.831 0-1.468-0.355-1.91-1.062-2.16-2.877-3.766-5.609-4.817-8.193l-0.374-0.951-5.521-0.036c-0.361 0-0.561 0.019-0.602 0.055-0.042 0.036-0.063 0.14-0.063 0.311 0 0.218 0.028 0.451 0.083 0.694l0.873 2.049c2.324 5.292 4.851 9.462 7.578 12.509 2.726 3.049 5.404 4.573 8.033 4.573h4.151c0.167 0 0.291-0.044 0.374-0.128 0.084-0.086 0.153-0.25 0.208-0.495l0.083-0.365 0.79-3.219c0.221-0.439 0.415-0.732 0.582-0.879 0.304-0.268 0.663-0.401 1.078-0.401 0.665 0 1.344 0.353 2.036 1.060l3.529 3.951c0.221 0.317 0.457 0.476 0.705 0.476h6.851c0.831 0 1.247-0.183 1.247-0.55-0.004-0.137-0.050-0.263-0.126-0.365l0.001 0.002-6.022-6.623c-0.47-0.512-0.705-1.060-0.705-1.645 0-0.586 0.223-1.146 0.665-1.683 0.361-0.489 1.059-1.299 2.097-2.433 0.892-0.965 1.782-2.001 2.633-3.069l0.087-0.112c0.774-0.989 1.286-1.884 1.536-2.689l0.124-0.476c-0.027-0.059-0.042-0.129-0.042-0.202 0-0.013 0-0.025 0.001-0.037l-0 0.002c0-0.006 0-0.013 0-0.021 0-0.091-0.016-0.178-0.044-0.26l0.002 0.005h-6.519c-0.415 0.145-0.746 0.367-0.996 0.659l-0.247 0.695c-0.694 1.683-2.506 4.279-5.44 7.791-0.532 0.455-1.228 0.732-1.989 0.732-0.017 0-0.033-0-0.050-0l0.003 0z"></path>
</symbol>
<symbol id="icon-logo_html" viewBox="0 0 25 32">
<path fill="#666" style="fill: var(--color7, #666)" d="M12.84 0.015l-0.135-0.015-12.706 1.324v23.159l12.706 7.517 12.706-7.517v-23.159l-12.571-1.309zM23.75 23.544l-11.044 6.532-11.044-6.533v-9.492l10.998 6.509 0.019 1.179-7.545-4.464-0.010 1.153 7.573 4.526 0.019 1.21-7.572-4.478-0.009 1.154 7.573 4.523 7.646-4.549v-4.901l3.407-2.024-0.009 9.653zM23.75 12.661l-3.031 1.769-1.395 0.824-6.649-3.941-0.010 1.153 5.685 3.363-0.172 0.101-0.809 0.463-4.693-2.775-0.010 1.153 3.704 2.191-0.878 0.574-0.020 0.011-2.796-1.64-0.010 1.153 1.832 1.068-1.871 1.116-10.935-6.468 10.953-6.549 11.106 6.432zM23.75 11.508l-11.1-6.51-10.987 6.504v-8.687l11.044-1.154 11.044 1.154v8.694z"></path>
</symbol>
<symbol id="icon-cat-slim" viewBox="0 0 23 32">
<path d="M18.092 0h-0.125c-0.212 0.121-0.378 0.301-0.479 0.517l-0.003 0.007c-0.172 0.322-0.317 0.697-0.418 1.089l-0.008 0.036c-0.044 0.24-0.242 0.423-0.486 0.442l-0.002 0c-0.752 0.133-1.374 0.598-1.719 1.234l-0.006 0.013c-0.214 0.37-0.42 0.805-0.59 1.257l-0.021 0.062c-0.468 1.214-0.828 2.468-1.27 3.692-0.208 0.558-0.218 0.558-0.845 0.558-0.749 0-0.696-0.115-0.706 0.709 0 0.261 0.079 0.393 0.356 0.379 0.086 0 0.214-0.043 0.247 0.069s-0.079 0.162-0.145 0.228c-0.38 0.386-0.865 0.668-1.408 0.801l-0.020 0.004c-0.627 0.168-1.267 0.3-1.877 0.505-1.567 0.525-3.015 1.257-4.144 2.497-0.635 0.738-1.162 1.594-1.541 2.525l-0.022 0.062c-1.211 2.85-1.798 5.852-2.253 8.884-0.214 1.422-0.366 2.85-0.482 4.289-0.059 0.706-0.125 1.422-0.125 2.141h10.995c0.004-0.027 0.006-0.058 0.006-0.090 0-0.122-0.030-0.236-0.083-0.336l0.002 0.004c-0.217-0.529-0.686-0.916-1.254-1.011l-0.010-0.001c-0.231-0.053-0.257-0.122-0.115-0.303 0.221-0.292 0.4-0.632 0.518-0.999l0.007-0.024c0.538-1.587 0.746-3.243 1.006-4.882 0.16-1.331 0.562-2.54 1.161-3.624l-0.026 0.051c0.484-0.83 1.1-1.528 1.828-2.089l0.017-0.012c0.274-0.208 0.284-0.208 0.33 0.145 0.033 0.234 0.040 0.475 0.056 0.713 0.099 1.558 0.079 3.122-0.059 4.678-0.069 0.627-0.108 1.354-0.108 2.091 0 0.541 0.021 1.078 0.063 1.608l-0.004-0.070c0.148 1.55 0.412 2.962 0.79 4.328l-0.041-0.174h4.388c-0.121-0.734-0.675-1.31-1.387-1.463l-0.012-0.002c-0.14-0.023-0.301-0.037-0.466-0.037-0.275 0-0.542 0.038-0.795 0.108l0.021-0.005c-0.198 0.046-0.28 0-0.297-0.214-0.036-0.434-0.056-0.939-0.056-1.448 0-1.335 0.141-2.637 0.408-3.892l-0.022 0.122c0.381-1.607 0.736-3.647 0.983-5.72l0.027-0.278c0.094-0.862 0.362-1.645 0.767-2.337l-0.015 0.028c0.393-0.699 0.736-1.425 1.122-2.128 0.173-0.284 0.276-0.628 0.276-0.996 0-0.258-0.050-0.504-0.142-0.729l0.005 0.013c-0.089-0.234-0.175-0.472-0.284-0.696-0.33-0.643-0.66-1.28-0.963-1.93-0.162-0.33-0.125-0.37 0.234-0.379 0.538 0 0.538 0 0.548-0.541v-0.218c0-0.228-0.086-0.353-0.33-0.33h-0.501c-0.228 0-0.294-0.096-0.238-0.33 0.231-0.772 0.882-1.346 1.681-1.46l0.011-0.001c0.188-0.017 0.406-0.027 0.627-0.027 0.552 0 1.089 0.062 1.606 0.178l-0.049-0.009c0.030 0.010 0.064 0.015 0.099 0.015 0.145 0 0.268-0.094 0.313-0.224l0.001-0.002c0.132-0.33 0.277-0.66 0.426-0.99 0.028-0.047 0.044-0.104 0.044-0.164 0-0.081-0.029-0.155-0.077-0.212l0 0c-1.056-1.339-2.2-2.59-3.761-3.391-0.151-0.066-0.261-0.202-0.29-0.367l-0-0.003c-0.099-0.519-0.244-0.979-0.435-1.414l0.016 0.041c-0.092-0.239-0.254-0.433-0.46-0.565l-0.005-0.003z"></path>
</symbol>
<symbol id="icon-cat-pro" viewBox="0 0 77 32">
<path d="M70.343 3.314c0.672-1.058 1.532-1.936 2.54-2.609l0.032-0.020c0.571-0.4 0.914-0.4 1.257 0.343 0.457 1.086 0.857 2.229 0.514 3.429-0.037 0.115-0.058 0.247-0.058 0.384 0 0.31 0.108 0.595 0.288 0.819l-0.002-0.003c0.343 0.457 0.629 0.914 0.914 1.314 0.479 0.604 0.768 1.377 0.768 2.218 0 0.477-0.093 0.933-0.262 1.349l0.009-0.024c-0.122 0.32-0.193 0.69-0.193 1.077 0 0.246 0.029 0.486 0.083 0.715l-0.004-0.021c0.114 0.566 0.114 1.149 0 1.714-0.098 0.876-0.712 1.586-1.528 1.825l-0.015 0.004c-0.753 0.147-1.39 0.56-1.823 1.135l-0.005 0.008c-0.108 0.173-0.297 0.286-0.512 0.286-0.001 0-0.002 0-0.002 0h0c-0.686 0.114-2.4-1.429-2.4-2.114v-0.343c0.057-2.057-0.057-2.229-1.943-3.086-0.408-0.146-0.754-0.382-1.027-0.684l-0.002-0.002c-0.343-0.457-0.8-0.4-1.314-0.229s-0.8 0.514-0.743 1.086c0.123 0.937 0.193 2.020 0.193 3.119 0 0.37-0.008 0.738-0.024 1.105l0.002-0.052c0.004 0.159 0.043 0.315 0.114 0.457 1.771 2.571 2.457 5.6 3.314 8.514 0.686 2.229 1.943 3.429 4.229 3.6 0.366 0.029 0.729 0.086 1.086 0.171 0.965 0.159 1.726 0.881 1.94 1.813l0.003 0.016c0.4 1.2 0.171 1.486-1.029 1.486h-3.714c-0.028 0.002-0.061 0.002-0.094 0.002-0.469 0-0.896-0.174-1.222-0.461l0.002 0.002c-0.554-0.47-1.197-0.856-1.897-1.127l-0.046-0.016c-0.8-0.301-1.461-0.815-1.934-1.473l-0.008-0.012c-0.692-0.961-1.443-1.803-2.273-2.56l-0.013-0.011c-1.6-1.657-3.314-3.257-4.8-4.971-1.092-1.127-1.78-2.65-1.828-4.334l-0-0.009c0-0.514-0.114-0.743-0.686-0.514-0.171 0.109-0.369 0.168-0.571 0.171-1.6 0-2.4 0.971-2.971 2.4-0.514 1.2-1.2 2.343-1.829 3.543-0.341 0.702-0.549 1.524-0.571 2.392l-0 0.008c0 1.371 0.343 1.829 1.6 2.286 0.8 0.286 1.543 0.571 1.943 1.371 0.457 0.914 0.343 1.143-0.629 1.2h-3.886c-0.032 0.003-0.069 0.005-0.106 0.005-0.434 0-0.807-0.257-0.977-0.627l-0.003-0.007-1.029-1.714c-0.373-0.544-0.596-1.216-0.596-1.94 0-0.411 0.072-0.805 0.203-1.17l-0.008 0.024c0.128-0.492 0.201-1.057 0.201-1.639 0-0.492-0.052-0.972-0.152-1.434l0.008 0.045c-0.063-0.293-0.1-0.629-0.1-0.974 0-1.151 0.404-2.207 1.078-3.035l-0.007 0.009c0.343-0.4 0.343-0.571-0.229-0.686-2.551-0.551-4.803-1.358-6.907-2.418l0.164 0.075c-0.032 0-0.057-0.026-0.057-0.057v0c-1.829-0.686-2.171-0.571-2.686 1.314-0.457 1.6-0.914 3.2-1.257 4.857-0.4 1.829 0.057 3.543 0.629 5.257 0.229 0.686 0.914 0.629 1.429 0.8 1.143 0.343 2.114 0.8 2.571 2 0.4 0.914 0.343 1.029-0.629 1.029s-1.943-0.057-2.971 0c-0.020 0-0.045 0.001-0.069 0.001-0.883 0-1.695-0.301-2.339-0.807l0.008 0.006c-2.743-1.829-3.543-4.629-3.771-7.657-0.114-1.886-1.143-3.371-2.343-4.8-0.229-0.286-0.457-0.4-0.8-0.171-1.075 0.608-2.338 1.186-3.652 1.659l-0.177 0.055c-2.83 1.018-5.194 2.756-6.946 4.995l-0.025 0.034c-0.645 0.806-1.092 1.797-1.253 2.881l-0.004 0.033c-0.171 1.029 0.114 1.486 1.143 1.771s1.543 0.857 1.657 1.943c0.057 0.457-0.114 0.686-0.571 0.686h-4.629c-0.316-0.023-0.587-0.199-0.741-0.453l-0.002-0.004c-0.677-0.832-1.086-1.905-1.086-3.073 0-0.024 0-0.049 0.001-0.073l-0 0.004c-0.030-1.974 0.142-3.946 0.514-5.886 0.162-1.204 0.9-2.206 1.923-2.733l0.020-0.009c3.371-1.6 5.143-4.629 6.743-7.771 0.343-0.629 0.057-0.743-0.514-0.686-1.68 0.239-3.174 0.889-4.423 1.845l0.023-0.017c-1.755 1.288-3.303 2.618-4.743 4.057l0-0c-1.522 1.545-3.566 2.573-5.846 2.797l-0.039 0.003c-4.171 0.229-6.114-2.114-5.943-5.886 0.041-1.342 0.554-2.557 1.377-3.492l-0.005 0.006c0.448-0.577 1.143-0.945 1.923-0.945 0.231 0 0.454 0.032 0.666 0.092l-0.017-0.004c0.857 0.229 1.086 0.686 0.743 1.543-0.171 0.343-0.4 0.629-0.571 0.971-0.234 0.328-0.428 0.707-0.563 1.113l-0.009 0.030c-0.629 1.714 0.229 2.914 2 3.086 1.886 0.171 3.429-0.629 4.857-1.771 1.727-1.39 3.231-2.949 4.523-4.676l0.048-0.067c1.947-2.544 4.857-4.268 8.176-4.624l0.052-0.005c1.314-0.171 2.457-0.743 3.714-1.086 2.069-0.654 4.449-1.031 6.917-1.031 0.12 0 0.239 0.001 0.358 0.003l-0.018-0c0.092 0.004 0.2 0.006 0.309 0.006 1.088 0 2.121-0.234 3.052-0.654l-0.047 0.019c2.8-1.143 5.714-1.143 8.629-0.571 2.286 0.457 4.571 1.029 6.8 1.6 0.522 0.102 1.122 0.16 1.736 0.16 0.804 0 1.585-0.1 2.33-0.289l-0.065 0.014c2.252-0.597 4.873-1.006 7.566-1.139l0.091-0.004c1.693-0.082 3.38 0.251 4.914 0.971 1.143 0.514 1.143 0.514 0.857 1.6z"></path>
</symbol>
<symbol id="icon-icon_leaf" viewBox="0 0 30 32">
<path fill="#fff" style="fill: var(--color8, #fff)" d="M27.844 2.767c-0.1-0.45-0.48-0.767-0.912-0.767h-0.005c-4.938 0.033-16.945 0.916-21.793 8.38-2.518 3.878-2.735 8.913-0.644 14.965 0.016 0.047 0.048 0.079 0.070 0.122-0.747 1.973-1.037 3.286-1.044 3.323-0.11 0.54 0.214 1.072 0.72 1.188 0.059 0.014 0.126 0.022 0.196 0.022 0 0 0.001 0 0.002 0h-0c0.433 0 0.822-0.321 0.916-0.79 0.020-0.102 2.409-10.373 10.854-16.378 0.431-0.306 0.547-0.927 0.26-1.387-0.288-0.46-0.87-0.585-1.3-0.277-4.79 3.405-7.739 8.008-9.473 11.656-1.242-4.578-0.916-8.377 0.986-11.305 3.743-5.764 12.622-7.154 17.982-7.448-1.153 1.801-2.413 5.103-2.413 10.929 0 3.12-0.83 5.522-2.465 7.14-2.62 2.591-6.88 2.834-9.993 2.584-0.518-0.045-0.967 0.371-1.006 0.922-0.040 0.55 0.347 1.030 0.863 1.072 0.623 0.051 1.29 0.082 1.981 0.082 3.17 0 6.87-0.663 9.43-3.194 2.034-2.011 3.065-4.906 3.065-8.605 0-9.099 3.216-11.096 3.232-11.105 0.39-0.209 0.594-0.677 0.492-1.129z"></path>
</symbol>
<symbol id="icon-icon_tub" viewBox="0 0 30 32">
<path fill="#fff" style="fill: var(--color8, #fff)" d="M21.446 19.069c-1.761 0-3.188 1.527-3.188 3.407 0 1.883 1.428 3.409 3.188 3.409 1.761 0 3.188-1.526 3.188-3.409 0-1.882-1.428-3.406-3.188-3.406zM21.446 24.244c-0.913 0-1.652-0.791-1.652-1.765 0-0.978 0.739-1.768 1.652-1.768s1.654 0.791 1.654 1.767c0 0.975-0.741 1.766-1.654 1.766zM11.981-0.010c-1.817 0-3.29 1.574-3.29 3.517s1.472 3.517 3.29 3.517c1.817 0 3.29-1.573 3.29-3.517s-1.473-3.517-3.29-3.517zM11.981 5.642c-1.105 0-1.998-0.956-1.998-2.137 0-1.179 0.895-2.136 1.997-2.136 1.105 0 1.998 0.957 1.998 2.137s-0.894 2.136-1.998 2.136zM8.492 18.178c-1.336 0-2.417 1.156-2.417 2.584s1.081 2.584 2.415 2.584c1.337 0 2.418-1.156 2.418-2.584 0-1.427-1.081-2.584-2.417-2.584zM8.258 20.129c-0.474 0 1.195 1.14 1.195 0.633 0-0.506-1.669 0.399-1.195 0.399s1.091-0.905 1.091-0.401c0 0.506-0.617-0.632-1.091-0.632zM19.097 10.078s3.138-0.866 6.377 1.542c0.936 0.785 1.822 1.379 1.189 2.19-0.354 0.351-0.658 0.678-1.771-0.541-1.087-0.785-2.808-1.959-5.795-1.489-1.164 0.245-2.024 0.569-3.671 2.219-1.644 1.65-4.1 2.813-6.707 2.569s-3.973-1.299-5.415-2.624c-0.303-0.434-0.303-0.893-0.127-1.163s0.86-0.541 1.24-0.136c0.38 0.407 2.177 2.029 3.948 2.137s3.544 0.217 5.922-2.028c2.38-2.244 3.57-2.406 4.81-2.677z"></path>
<path fill="#fff" style="fill: var(--color8, #fff)" d="M29.57 27.681v-19.261c0-0.597-0.386-0.671-0.541-0.676h-0.522c-0.509 0-0.553 0.575-0.555 0.763v0.061c0.002 3.725 0.010 18.843-0.002 19.138-0.013 0.766-0.334 1.454-0.846 1.947l-0.001 0.001c-0.835 0.717-1.67 0.622-1.67 0.622s-20.828 0-21.321-0.027c-0.392-0.068-1.076-0.217-1.658-1.043-0.582-0.824-0.468-1.907-0.468-1.907v-18.717c0-0.866-0.697-0.838-0.697-0.838h-0.317c-0.553 0-0.604 0.607-0.607 0.801v19.135c0 1.38 0.468 2.475 1.598 3.445 1.129 0.969 2.452 0.884 2.452 0.884s20.359 0 21.245-0.002c0.887-0.003 2.050-0.43 3.010-1.606 0.96-1.175 0.9-2.72 0.9-2.72z"></path>
<path fill="#fff" style="fill: var(--color8, #fff)" d="M29.57 27.681h-20.645v0.399l0.015 0.399 20.63-0.799zM29.029 7.744l0.733-20.632-0.366-0.013h-0.366v20.645zM27.951 8.507l-20.645-0.155v0.155h20.645zM27.951 8.569v0zM27.949 27.707v0zM27.103 29.655l13.46 15.654 0.445-0.382 0.423-0.409-14.328-14.863zM25.433 30.277l2.333-20.513-1.163-0.132h-1.17v20.645zM4.111 30.25l-3.505 20.346 1.171 0.201 1.185 0.066 1.149-20.614zM2.454 29.208v0.001zM1.986 27.301l20.532 2.166 0.114-1.080v-1.086h-20.645zM1.289 7.745v20.645h0.401l0.401-0.015-0.801-20.63zM0.365 8.546l-20.643-0.298-0.002 0.15v0.149h20.645zM1.963 31.126h0.001zM4.415 32.009v-20.645h-0.664l-0.661 0.042 1.324 20.604zM28.67 30.401v0zM50.215 27.681v-19.261h-41.29v19.261h41.29zM50.215 8.42c0-5.13-1.919-11.787-7.864-16.603-5.048-4.088-10.354-4.626-12.589-4.705l-1.466 41.263c-4.555-0.168-8.692-1.827-11.969-4.5l0.036 0.029c-5.714-4.628-7.438-10.95-7.438-15.484h41.29zM29.029-12.901h-0.522v41.29h0.522v-41.29zM28.507-12.901c-0.005 0-0.011 0-0.016 0-4.774 0-9.178 1.583-12.717 4.253l0.053-0.039c-2.847 2.151-5.101 4.94-6.572 8.162l-0.054 0.133c-1.177 2.57-1.872 5.573-1.894 8.735l-0 0.008 41.289 0.309c-0.006 0.757-0.014 4.040-1.721 7.843-1.45 3.177-3.59 5.819-6.242 7.819l-0.051 0.037c-3.322 2.513-7.522 4.026-12.075 4.030h-0.001v-41.29zM7.306 8.507v0.053h41.29v-0.054h-41.29zM7.306 8.558v0.011l41.29-0.011h-41.29zM7.306 8.577l0.004 10.85c0 0.4 0 0.881 0 1.363 0 2.15-0.001 4.299-0.002 6.449l0-0.326c-0.002 0.813-0.006 0.465 0.010 0.011l41.262 1.566c0.021-0.526 0.019-1.414 0.019-1.497l0.002-1.866v-5.706c0-4.284-0.003-9-0.004-10.859l-41.29 0.017zM7.319 26.938c0.052-1.394 0.396-7.269 5.455-12.147l28.657 29.727c6.602-6.365 7.073-13.973 7.15-16.041l-41.262-1.539zM13.642 14.001c2.219-1.911 4.941-3.3 7.94-3.946l0.119-0.021c1.149-0.253 2.469-0.398 3.822-0.398 0.336 0 0.67 0.009 1.001 0.027l-0.046-0.002c0.469 0.023 0.887 0.057 1.301 0.104l-0.091-0.008 0.058 0.006c0.010 0.001 0.020 0.002-2.313 20.515s-2.323 20.514-2.313 20.515l0.019 0.003c0.013 0 0.026 0.002 0.039 0.004 0.123 0.016 0.32 0.036 0.517 0.051l0.053 0.003c0.532 0.047 1.151 0.074 1.777 0.074 0.201 0 0.401-0.003 0.601-0.008l-0.029 0.001c1.479-0.039 2.893-0.213 4.262-0.51l-0.15 0.027c4.008-0.866 7.505-2.662 10.383-5.153l-0.029 0.025-26.919-31.308zM25.433 30.277v-20.645h-0.894c-6.056-0.001-11.975-0.005-17.892-0.011l1.044 0.001-2.433-0.007c-1.106-0.005-0.633-0.013 0.002 0.023l-2.297 41.226c1.001 0.056 7.401 0.053 11.98 0.056l10.489 0.003v-20.645zM7.615 9.905c0.446 0.076 2.607 0.441 5.097 1.706 2.677 1.375 4.894 3.299 6.57 5.637l0.037 0.055-33.733 23.812c5.156 7.304 12.26 9.006 15.020 9.482l7.008-40.692zM19.325 17.309c2.424 3.437 3.002 6.72 3.179 8.212 0.076 0.606 0.119 1.307 0.119 2.018 0 0.54-0.025 1.073-0.074 1.6l0.005-0.068c-0.015 0.189-0.025 0.292-0.036 0.395l0.008-0.096-0.005 0.049-0.002 0.025c-0 0.001-0.001 0.005-0.002 0.009l-0 0.003c0 0.005 0 0.011-20.532-2.154s-20.532-2.159-20.533-2.153l-0.002 0.012-0.002 0.025-0.005 0.052c0-0.030-0.011 0.080-0.021 0.19l-0.010 0.13c-0.044 0.478-0.072 1.048-0.079 1.622l-0 0.014c-0.011 0.836 0.017 1.923 0.165 3.179 0.265 2.239 1.077 6.472 4.084 10.735l33.741-23.799zM22.631 27.301v-18.718h-41.29v18.718h41.29zM22.631 8.583c0-7.112-3.522-14.456-10.596-18.58-3.081-1.825-6.79-2.903-10.751-2.903-0.262 0-0.522 0.005-0.782 0.014l0.038-0.001h-0.026c-0.012 0.001-0.025 0.002 0.775 20.632 0.801 20.63 0.788 20.63 0.775 20.63l-0.025 0.001-0.052 0.002c-0.060 0.002-0.168 0.005-0.277 0.008l-0.033 0.001c-0.113 0.002-0.245 0.004-0.378 0.004-3.706 0-7.177-1.008-10.153-2.765l0.093 0.051c-3.153-1.86-5.689-4.461-7.42-7.572l-0.052-0.102c-1.521-2.718-2.42-5.962-2.427-9.416v-0.002h41.29zM1.288-12.9h-0.316v41.29h0.317v-41.29zM0.971-12.9c-4.167 0-8.588 1.229-12.45 4.031-2.891 2.116-5.188 4.874-6.709 8.074l-0.055 0.129c-1.244 2.612-1.99 5.671-2.035 8.899l-0 0.016 41.286 0.597c-0.011 0.782-0.046 4.125-1.842 7.967-1.493 3.142-3.667 5.746-6.343 7.702l-0.057 0.040c-3.265 2.394-7.361 3.832-11.792 3.837h-0.001v-41.29zM-20.28 8.546v19.135h41.29v-19.135h-41.29zM-20.28 27.681c0 7.291 3.014 14.147 8.797 19.111l26.892-31.333c1.336 1.147 2.946 2.964 4.122 5.546 0.921 1.958 1.465 4.252 1.479 6.671l0 0.005h-41.29zM-11.482 46.792c2.98 2.566 6.633 4.434 10.658 5.308l0.161 0.029c1.516 0.335 3.257 0.527 5.043 0.527 0.073 0 0.146-0 0.219-0.001l-0.011 0c0.372-0.004 0.729-0.017 1.083-0.038l-0.061 0.003 0.065-0.004 0.031-0.002h0.017c0.008-0.001 0.017-0.002-1.308-20.604-1.324-20.604-1.318-20.604-1.309-20.604l0.015-0.002 0.031-0.001c-1.379 0.061-1.313 0.057-1.246 0.053l1.437-0.064c0.219-0.012 0.491-0.022 0.764-0.026l0.015-0c0.353-0.004 0.725 0.002 1.112 0.022 0.761 0.038 1.659 0.134 2.654 0.345 1.941 0.411 4.792 1.383 7.52 3.725l-26.89 31.333zM4.415 32.010v20.645l10.292-0.001c5.169 0 10.531 0 11.012-0.002l-0.117-41.29-21.186 0.002v20.645zM25.719 52.652c7.333-0.021 14.245-3.444 18.94-9.189l-31.976-26.122c2.774-3.396 7.359-5.963 12.92-5.979l0.117 41.29zM44.665 43.455c3.35-4.105 4.577-8.357 5.071-10.869 0.292-1.415 0.465-3.047 0.479-4.717l0-0.011c0-0.038 0-0.082 0-0.127 0-0.28-0.005-0.56-0.015-0.837l0.001 0.040-0.001-0.027v-0.013c-0.001-0.006-0.001-0.013-20.631 0.787-20.63 0.799-20.631 0.792-20.631 0.786v-0.013l-0.001-0.026c-0.003-0.084-0.007-0.211-0.010-0.339l-0-0.026c-0.002-0.090-0.002-0.197-0.002-0.303 0-0.352 0.010-0.702 0.029-1.050l-0.002 0.048c0.034-0.596 0.108-1.321 0.27-2.143 0.284-1.445 1.061-4.337 3.452-7.266l31.99 26.107z"></path>
</symbol>
<symbol id="icon-icon_eat" viewBox="0 0 27 32">
<path fill="#fff" style="fill: var(--color8, #fff)" d="M19.858 0.081c0.121-0.051 0.261-0.081 0.408-0.081 0.295 0 0.561 0.119 0.754 0.313v0c0.97 0.969 2.237 3.070 3.263 6.313 1.036 3.274 1.85 7.783 1.85 13.642 0 0.589-0.478 1.067-1.067 1.067v0h-3.733v9.6c0 0.589-0.478 1.067-1.067 1.067s-1.067-0.478-1.067-1.067v0-29.867c0-0 0-0 0-0 0-0.442 0.268-0.821 0.651-0.983l0.007-0.003zM21.333 19.2h2.657c-0.092-5.137-0.838-9.079-1.741-11.932-0.297-0.939-0.608-1.753-0.916-2.448v14.38zM6.4 0c0.589 0 1.067 0.478 1.067 1.067v0 29.867c0 0.589-0.478 1.067-1.067 1.067s-1.067-0.478-1.067-1.067v0-29.867c0-0.589 0.478-1.067 1.067-1.067v0z"></path>
<path fill="#fff" style="fill: var(--color8, #fff)" d="M1.6 0c0.589 0 1.067 0.478 1.067 1.067v0 5.867c0 0.594 0.205 1.403 0.747 2.045 0.512 0.604 1.403 1.155 2.987 1.155 0.589 0 1.067 0.478 1.067 1.067s-0.478 1.067-1.067 1.067v0c-2.149 0-3.659-0.782-4.614-1.911-0.771-0.921-1.243-2.115-1.252-3.42v-5.869c0-0.589 0.478-1.067 1.067-1.067v0z"></path>
<path fill="#fff" style="fill: var(--color8, #fff)" d="M11.2 0c-0.589 0-1.067 0.478-1.067 1.067v0 5.867c-0.009 0.78-0.29 1.493-0.751 2.050l0.004-0.005c-0.512 0.604-1.404 1.155-2.987 1.155-0.589 0-1.067 0.478-1.067 1.067s0.478 1.067 1.067 1.067v0c2.148 0 3.659-0.782 4.614-1.911 0.771-0.921 1.243-2.115 1.252-3.42v-5.869c0-0.589-0.478-1.067-1.067-1.067v0z"></path>
</symbol>
<symbol id="icon-icon_alarm" viewBox="0 0 31 32">
<path fill="#fff" style="fill: var(--color8, #fff)" d="M21.616 10.987c0 0.581-0.472 1.052-1.054 1.052s-1.054-0.471-1.054-1.052c0-0.581 0.472-1.052 1.054-1.052s1.054 0.471 1.054 1.052z"></path>
<path fill="#fff" style="fill: var(--color8, #fff)" d="M11.072 10.987c0 0.581-0.472 1.052-1.054 1.052s-1.054-0.471-1.054-1.052c0-0.581 0.472-1.052 1.054-1.052s1.054 0.471 1.054 1.052z"></path>
<path fill="#fff" style="fill: var(--color8, #fff)" d="M11.072 23.613c0 0.581-0.472 1.052-1.054 1.052s-1.054-0.471-1.054-1.052c0-0.581 0.472-1.052 1.054-1.052s1.054 0.471 1.054 1.052z"></path>
<path fill="#fff" style="fill: var(--color8, #fff)" d="M16.344 25.717c0 0.581-0.472 1.052-1.054 1.052s-1.054-0.471-1.054-1.052c0-0.581 0.472-1.052 1.054-1.052s1.054 0.471 1.054 1.052z"></path>
<path fill="#fff" style="fill: var(--color8, #fff)" d="M7.909 17.236c0 0.581-0.472 1.052-1.054 1.052s-1.054-0.471-1.054-1.052c0-0.581 0.472-1.052 1.054-1.052s1.054 0.471 1.054 1.052z"></path>
<path fill="#fff" style="fill: var(--color8, #fff)" d="M24.779 17.236c0 0.581-0.472 1.052-1.054 1.052s-1.054-0.471-1.054-1.052c0-0.581 0.472-1.052 1.054-1.052s1.054 0.471 1.054 1.052z"></path>
<path fill="#fff" style="fill: var(--color8, #fff)" d="M21.616 23.613c0 0.581-0.472 1.052-1.054 1.052s-1.054-0.471-1.054-1.052c0-0.581 0.472-1.052 1.054-1.052s1.054 0.471 1.054 1.052z"></path>
<path fill="#fff" style="fill: var(--color8, #fff)" d="M20.288 28.178c-1.52 0.727-3.213 1.135-4.998 1.135h0.001c-0.004 0-0.009 0-0.013 0-1.852 0-3.603-0.437-5.087-1.184l0.006 0.003c-0.141-0.073-0.302-0.115-0.472-0.115-0.282 0-0.537 0.114-0.722 0.297l-1.824 1.872c-0.121 0.135-0.297 0.22-0.493 0.22-0.365 0-0.661-0.296-0.661-0.661 0-0.19 0.080-0.361 0.208-0.482l1.391-1.428c0.41-0.421 0.351-1.106-0.087-1.497-2.516-2.243-4.108-5.558-4.108-9.258 0-6.755 5.31-12.232 11.861-12.232s11.861 5.477 11.861 12.232c0 3.739-1.625 7.085-4.187 9.328-0.445 0.39-0.508 1.080-0.095 1.505l1.315 1.351c0.105 0.117 0.168 0.271 0.168 0.441 0 0.365-0.296 0.661-0.661 0.661-0.176 0-0.336-0.069-0.454-0.18l-1.771-1.818c-0.185-0.184-0.441-0.297-0.722-0.297-0.166 0-0.324 0.040-0.457 0.107zM15.29 27.954c5.823 0 10.543-4.868 10.543-10.873s-4.721-10.873-10.543-10.873c-5.823 0-10.543 4.868-10.543 10.872s4.721 10.873 10.543 10.873zM14.553 16.774v0.842c0 0.407 0.33 0.737 0.737 0.737 0.43 0 0.779-0.349 0.779-0.779v-7.935c0-0.419-0.339-0.758-0.758-0.758s-0.758 0.339-0.758 0.758v7.135z"></path>
<path fill="#fff" style="fill: var(--color8, #fff)" d="M9.003 28.314v0zM10.191 28.129v0zM7.18 30.186l-2.777-2.704 2.778 2.705zM6.233 29.265l-2.779-2.707 2.779 2.706zM22.869 27.913v0zM22.964 26.408v0.001zM7.537 26.338v0zM7.624 27.835v0zM24.185 29.264v0zM23.238 30.186l-2.777 2.706 2.778-2.705zM21.468 28.367l2.778-2.705-2.779 2.705zM20.288 28.177v0zM18.688 31.074l1.773 1.818 5.557-5.413-1.771-1.817-5.557 5.411zM26.964 26.557l-1.316-1.351-5.557 5.413 1.315 1.351 5.558-5.413zM25.52 29.326c3.384-2.963 5.511-7.365 5.511-12.245h-7.758c0 2.596-1.125 4.887-2.864 6.41l5.11 5.836zM31.030 17.080c0-8.784-6.935-16.111-15.74-16.111v7.758c4.297 0 7.983 3.627 7.983 8.353h7.758zM15.29 0.97c-8.805 0-15.74 7.327-15.74 16.111h7.758c0-4.726 3.685-8.353 7.983-8.353v-7.758zM-0.45 17.080c0 4.829 2.082 9.19 5.405 12.152l5.163-5.789c-1.709-1.524-2.81-3.794-2.81-6.362h-7.758zM4.845 25.129l-1.391 1.428 5.557 5.413 1.391-1.428-5.556-5.412zM9.959 32.892l1.823-1.872-5.558-5.413-1.823 1.872 5.558 5.413zM8.48 31.609c1.984 0.998 4.323 1.583 6.799 1.583 0.004 0 0.008 0 0.012 0h-0.001v-7.758c-0.003 0-0.007 0-0.011 0-1.23 0-2.391-0.29-3.42-0.806l0.044 0.020-3.423 6.962zM15.29 33.192c2.382 0 4.647-0.543 6.675-1.518l-3.355-6.993c-1.009 0.484-2.131 0.753-3.32 0.753v7.758zM15.29 31.832c8.078 0 14.422-6.718 14.422-14.751h-7.758c0 3.976-3.095 6.993-6.665 6.993v7.758zM29.712 17.081c0-8.034-6.346-14.752-14.422-14.752v7.758c3.569 0 6.665 3.018 6.665 6.994h7.758zM15.29 2.329c-8.078 0-14.422 6.718-14.422 14.751h7.758c0-3.976 3.095-6.993 6.665-6.993v-7.758zM0.868 17.080c0 8.034 6.346 14.752 14.422 14.752v-7.758c-3.569 0-6.665-3.018-6.665-6.994h-7.758zM12.19 16.774v0.527h7.758v-0.527h-7.758zM12.19 17.3v0.273h7.758v-0.273h-7.758zM18.432 17.616v-0.315h-7.758v0.315h7.758zM18.432 17.3v-0.527h-7.758v0.527h7.758zM18.432 16.774v-3.683h-7.758v3.683h7.758zM18.432 13.091v-3.452h-7.758v3.452h7.758zM12.19 9.639v3.452h7.758v-3.452h-7.758zM12.19 13.091v3.683h7.758v-3.683h-7.758zM15.312 5.004c-0 0-0.001 0-0.001 0-2.56 0-4.636 2.075-4.636 4.635v0h7.758c0 0 0 0.001 0 0.001 0 1.724-1.397 3.121-3.12 3.121h-0v-7.758zM12.189 17.574c0-1.712 1.388-3.1 3.1-3.1 0 0 0.001 0 0.001 0h-0v7.758c2.572 0 4.657-2.085 4.657-4.657v0h-7.758zM11.782 31.021c-0.52 0.54-1.249 0.875-2.056 0.875-0.453 0-0.882-0.106-1.262-0.294l0.017 0.007 3.423-6.961c-1.771-0.871-4.099-0.662-5.679 0.96l5.557 5.413zM3.454 32.892c0.826 0.847 1.978 1.372 3.252 1.372s2.427-0.525 3.251-1.371l0.001-0.001-5.557-5.413c0.585-0.6 1.402-0.973 2.305-0.973s1.72 0.372 2.304 0.972l0.001 0.001-5.557 5.413zM3.454 26.557c-0.796 0.817-1.288 1.935-1.288 3.168s0.491 2.35 1.288 3.168l-0.001-0.001 5.557-5.413c0.564 0.579 0.913 1.371 0.913 2.245s-0.348 1.666-0.913 2.246l0.001-0.001-5.557-5.411zM25.648 25.206c1.302 1.338 0.915 3.205-0.129 4.119l-5.11-5.836c-1.935 1.695-2.447 4.944-0.318 7.129l5.557-5.413zM15.312 12.761c-0 0-0.001 0-0.001 0-1.724 0-3.121-1.398-3.121-3.121 0-0 0-0.001 0-0.001v0h7.758c0-2.56-2.075-4.635-4.635-4.635v7.758zM4.955 29.233c-1.032-0.919-1.403-2.775-0.111-4.103l5.557 5.412c2.114-2.17 1.624-5.396-0.284-7.098l-5.163 5.789zM26.964 32.892c0.796-0.817 1.288-1.935 1.288-3.168s-0.491-2.35-1.288-3.168l0.001 0.001-5.558 5.413c-0.564-0.579-0.913-1.371-0.913-2.245s0.348-1.666 0.913-2.246l-0.001 0.001 5.558 5.411zM20.46 32.892c0.826 0.847 1.978 1.372 3.252 1.372s2.427-0.525 3.251-1.371l0.001-0.001-5.558-5.413c0.585-0.601 1.402-0.973 2.305-0.973s1.72 0.373 2.305 0.972l0.001 0.001-5.556 5.413zM15.29 14.474c1.735 0 3.142 1.407 3.142 3.142v0h-7.758c0 2.549 2.067 4.616 4.616 4.616v0-7.758zM24.246 25.662c-1.567-1.61-3.871-1.829-5.637-0.981l3.355 6.993c-0.357 0.173-0.776 0.274-1.219 0.274-0.807 0-1.536-0.335-2.055-0.874l-0.001-0.001 5.557-5.411z"></path>
<path fill="#fff" style="fill: var(--color8, #fff)" d="M14.545 5.818v-3.879h1.455v3.879z"></path>
<path fill="#fff" style="fill: var(--color8, #fff)" d="M8.485 1.939h13.576c0.402 0 0.727 0.326 0.727 0.727s-0.326 0.727-0.727 0.727h-13.576c-0.402 0-0.727-0.326-0.727-0.727s0.326-0.727 0.727-0.727z"></path>
</symbol>
</defs>
</svg>
